<svg xmlns="http://www.w3.org/2000/svg" xmlns:xlink="http://www.w3.org/1999/xlink" width="26" height="23" viewBox="0 0 26 23">
    <defs>
        <path id="a" d="M0 0h13.936v26.905H0z"/>
    </defs>
    <g fill="none" fill-rule="evenodd" transform="rotate(135 9.87 13.929)">
        <mask id="b" fill="#fff">
            <use xlink:href="#a"/>
        </mask>
        <path fill="#B4C3D3" d="M10.234 19.938c0 .908-.363 1.712-.957 2.309a3.247 3.247 0 0 1-2.31.957 3.249 3.249 0 0 1-2.309-.957 3.249 3.249 0 0 1-.956-2.31c0-.907.362-1.712.956-2.309a3.245 3.245 0 0 1 2.31-.957c.907.001 1.712.363 2.31.957.593.597.955 1.402.956 2.31M0 19.938a6.969 6.969 0 0 0 13.936 0 6.965 6.965 0 0 0-5.118-6.712V0h-7.8v3.702h4.099v2.843h-4.1v3.701h4.1v2.98A6.965 6.965 0 0 0 0 19.938" mask="url(#b)"/>
    </g>
</svg>
