<svg xmlns="http://www.w3.org/2000/svg" width="20" height="20" viewBox="0 0 20 20">
    <g fill="none" fill-rule="evenodd">
        <path d="M-1 0h21v21H-1z"/>
        <path fill="#333" fill-rule="nonzero" d="M9.5 1.75C4.67 1.75.75 5.67.75 10.5s3.92 8.75 8.75 8.75 8.75-3.92 8.75-8.75-3.92-8.75-8.75-8.75zm-.875 15.689A6.99 6.99 0 0 1 2.5 10.5c0-.543.07-1.059.184-1.566l4.191 4.191V14c0 .963.787 1.75 1.75 1.75v1.689zm6.037-2.223A1.736 1.736 0 0 0 13 14h-.875v-2.625a.878.878 0 0 0-.875-.875H6V8.75h1.75a.878.878 0 0 0 .875-.875v-1.75h1.75c.963 0 1.75-.787 1.75-1.75v-.359C14.689 5.058 16.5 7.57 16.5 10.5c0 1.82-.7 3.474-1.838 4.716z"/>
    </g>
</svg>
