<svg xmlns="http://www.w3.org/2000/svg" width="14" height="14" viewBox="0 0 14 14">
    <g fill="none" fill-rule="evenodd">
        <path d="M0 0h14v14H0z"/>
        <path fill="#BBB" fill-rule="nonzero" d="M9.333 6.417c.969 0 1.745-.782 1.745-1.75a1.748 1.748 0 0 0-3.494 0c0 .968.781 1.75 1.75 1.75zm-4.666 0c.968 0 1.744-.782 1.744-1.75a1.748 1.748 0 0 0-3.494 0c0 .968.781 1.75 1.75 1.75zm0 1.166c-1.36 0-4.084.683-4.084 2.042v1.458H8.75V9.625c0-1.36-2.724-2.042-4.083-2.042zm4.666 0c-.169 0-.361.012-.566.03.677.49 1.15 1.149 1.15 2.012v1.458h3.5V9.625c0-1.36-2.724-2.042-4.084-2.042z"/>
    </g>
</svg>
