<svg xmlns="http://www.w3.org/2000/svg" width="12" height="12" viewBox="0 0 12 12">
    <g fill="none" fill-rule="evenodd">
        <path d="M-1-1h14v14H-1z"/>
        <path fill="#BBB" fill-rule="nonzero" d="M6 .167A5.835 5.835 0 0 0 .167 6 5.835 5.835 0 0 0 6 11.833 5.835 5.835 0 0 0 11.833 6 5.835 5.835 0 0 0 6 .167zm-.583 10.459A4.66 4.66 0 0 1 1.333 6c0-.362.047-.706.123-1.044L4.25 7.75v.583A1.17 1.17 0 0 0 5.417 9.5v1.126zm4.025-1.482a1.157 1.157 0 0 0-1.109-.81H7.75v-1.75A.585.585 0 0 0 7.167 6h-3.5V4.833h1.166c.321 0 .584-.262.584-.583V3.083h1.166A1.17 1.17 0 0 0 7.75 1.917v-.24A4.67 4.67 0 0 1 10.667 6a4.642 4.642 0 0 1-1.225 3.144z"/>
    </g>
</svg>
