<svg xmlns="http://www.w3.org/2000/svg" width="30" height="29" viewBox="0 0 30 29">
    <g fill="#FFF" fill-rule="evenodd">
        <path fill-rule="nonzero" d="M29.607 9.252l-4.859-4.86A1.32 1.32 0 0 0 23.811 4c-.333 0-.644.127-.875.358L7.61 19.685l-2.573 8.241c-.091.29-.01.607.21.827a.813.813 0 0 0 .827.211l8.242-2.573 15.326-15.326c.49-.49.475-1.304-.035-1.813zM14.848 23.351a2.128 2.128 0 0 0-.415-.709l10.524-10.524.565.565-7.45 7.45-3.224 3.218zm-1.416 1.422l-.059.059-4.934 1.54-.81-.81 1.54-4.935.059-.058.679-.036a.62.62 0 0 1 .477.183.62.62 0 0 1 .183.477 2.135 2.135 0 0 0 2.24 2.241.62.62 0 0 1 .478.184.62.62 0 0 1 .183.476l-.036.679zm-2.783-5.625l10.669-10.67.565.566-10.525 10.524a2.134 2.134 0 0 0-.605-.369c-.036-.016-.068-.036-.104-.051zm2.08 2.783a.62.62 0 0 1-.477-.183.621.621 0 0 1-.183-.477 2.13 2.13 0 0 0-.09-.734L22.677 9.838l1.484 1.485-10.7 10.699a2.115 2.115 0 0 0-.733-.09zm9.384-14.247l1.712-1.713 4.204 4.205-1.712 1.712-4.204-4.204z"/>
        <rect width="11" height="2" y="5" rx="1"/>
        <rect width="11" height="2" y="5" rx="1" transform="matrix(0 1 1 0 -.5 .5)"/>
    </g>
</svg>
