<svg xmlns="http://www.w3.org/2000/svg" xmlns:xlink="http://www.w3.org/1999/xlink" width="206" height="30" viewBox="0 0 206 30">
    <defs>
        <path id="a" d="M3.74.294A3.712 3.712 0 0 0 .028 4.008v2.154h3.786V5.027c0-.539.437-.976.975-.976h9.309a5.111 5.111 0 0 1 5.104 5.105 5.111 5.111 0 0 1-5.104 5.105H3.785V12.03H.028v8.538h3.757v-2.55h10.313c4.885 0 8.86-3.974 8.86-8.86 0-4.887-3.975-8.863-8.86-8.863H3.74z"/>
        <path id="c" d="M19.956.028v2.55H9.645c-4.886 0-8.863 3.976-8.863 8.863 0 4.886 3.977 8.862 8.863 8.862H20a3.715 3.715 0 0 0 3.714-3.714v-2.154h-3.786v1.134a.975.975 0 0 1-.977.975H9.645a5.11 5.11 0 0 1-5.105-5.103 5.11 5.11 0 0 1 5.105-5.105h10.31v2.231h3.76V.028h-3.759z"/>
    </defs>
    <g fill="none" fill-rule="evenodd">
        <g transform="translate(10.303 8.314)">
            <mask id="b" fill="#fff">
                <use xlink:href="#a"/>
            </mask>
            <path fill="#FFF" d="M3.74.294A3.712 3.712 0 0 0 .028 4.008v2.154h3.786V5.027c0-.539.437-.976.975-.976h9.309a5.111 5.111 0 0 1 5.104 5.105 5.111 5.111 0 0 1-5.104 5.105H3.785V12.03H.028v8.538h3.757v-2.55h10.313c4.885 0 8.86-3.974 8.86-8.86 0-4.887-3.975-8.863-8.86-8.863H3.74z" mask="url(#b)"/>
        </g>
        <g transform="translate(0 .041)">
            <mask id="d" fill="#fff">
                <use xlink:href="#c"/>
            </mask>
            <path fill="#FFF" d="M19.956.028v2.55H9.645c-4.886 0-8.863 3.976-8.863 8.863 0 4.886 3.977 8.862 8.863 8.862H20a3.715 3.715 0 0 0 3.714-3.714v-2.154h-3.786v1.134a.975.975 0 0 1-.977.975H9.645a5.11 5.11 0 0 1-5.105-5.103 5.11 5.11 0 0 1 5.105-5.105h10.31v2.231h3.76V.028h-3.759z" mask="url(#d)"/>
        </g>
        <path fill="#FFF" d="M57.375 10.9a3.825 3.825 0 0 0-1.413-1.075c-.558-.25-1.204-.375-1.937-.375-.733 0-1.412.142-2.038.425a4.875 4.875 0 0 0-1.625 1.188 5.534 5.534 0 0 0-1.075 1.812 6.521 6.521 0 0 0-.387 2.275c0 .833.13 1.596.388 2.287a5.685 5.685 0 0 0 1.062 1.8c.45.509.98.905 1.587 1.188a4.59 4.59 0 0 0 1.963.425c.8 0 1.508-.167 2.125-.5a4.23 4.23 0 0 0 1.525-1.4l3.25 2.425a6.768 6.768 0 0 1-2.85 2.325c-1.15.5-2.333.75-3.55.75-1.383 0-2.658-.217-3.825-.65a8.756 8.756 0 0 1-3.025-1.863c-.85-.808-1.512-1.787-1.987-2.937-.476-1.15-.713-2.433-.713-3.85 0-1.417.237-2.7.712-3.85.476-1.15 1.138-2.13 1.988-2.938A8.756 8.756 0 0 1 50.575 6.5c1.167-.433 2.442-.65 3.825-.65.5 0 1.02.046 1.563.138a8.442 8.442 0 0 1 1.6.437c.525.2 1.029.467 1.512.8.483.333.917.742 1.3 1.225l-3 2.45zm6.075.95h3.75v1.95h.05c.4-.75.875-1.312 1.425-1.688.55-.375 1.242-.562 2.075-.562.217 0 .433.008.65.025.217.017.417.05.6.1V15.1a5.1 5.1 0 0 0-1.6-.25c-.717 0-1.283.1-1.7.3-.417.2-.737.48-.963.838-.225.358-.37.787-.437 1.287-.067.5-.1 1.05-.1 1.65V24h-3.75V11.85zm18.575 14.125c-.25.65-.492 1.225-.725 1.725-.233.5-.53.92-.888 1.262-.358.342-.812.6-1.362.776-.55.175-1.275.262-2.175.262-.967 0-1.9-.15-2.8-.45l.5-3.075c.567.25 1.15.375 1.75.375.417 0 .758-.046 1.025-.138.267-.091.487-.224.663-.4.175-.175.32-.387.437-.637.117-.25.242-.542.375-.875l.275-.7-5.325-12.25h4.05l3.125 8.025H81l2.675-8.025h3.85l-5.5 14.125zm8.112-14.125h3.45v1.6h.05a4.445 4.445 0 0 1 1.438-1.275c.325-.183.679-.333 1.062-.45a4.186 4.186 0 0 1 1.225-.175c.9 0 1.717.154 2.45.462a5.463 5.463 0 0 1 1.888 1.3c.525.559.929 1.221 1.212 1.988.283.767.425 1.608.425 2.525 0 .85-.13 1.662-.387 2.438a6.708 6.708 0 0 1-1.1 2.062 5.373 5.373 0 0 1-1.738 1.438c-.683.358-1.458.537-2.325.537-.783 0-1.512-.12-2.187-.363a3.5 3.5 0 0 1-1.663-1.237h-.05v7h-3.75V11.85zm3.45 6.075c0 .917.263 1.658.788 2.225.525.567 1.262.85 2.212.85.95 0 1.688-.283 2.213-.85.525-.567.787-1.308.787-2.225s-.262-1.658-.787-2.225c-.525-.567-1.263-.85-2.213-.85-.95 0-1.687.283-2.212.85-.525.567-.788 1.308-.788 2.225zm21.087-3.075h-3.3v4.05c0 .333.017.637.05.913.033.275.108.512.225.712.117.2.296.354.538.463.241.108.562.162.962.162.2 0 .463-.02.788-.063.325-.041.57-.137.737-.287v3.125c-.417.15-.85.25-1.3.3-.45.05-.892.075-1.325.075a7.208 7.208 0 0 1-1.75-.2c-.533-.133-1-.346-1.4-.638-.4-.291-.712-.67-.937-1.137-.225-.467-.338-1.033-.338-1.7V14.85h-2.4v-3h2.4v-3.6h3.75v3.6h3.3v3zm2.312 3.075c0-.967.175-1.842.525-2.625.35-.783.83-1.454 1.438-2.013a6.348 6.348 0 0 1 2.15-1.287c.825-.3 1.704-.45 2.637-.45.934 0 1.813.15 2.638.45.825.3 1.541.73 2.15 1.287a6.042 6.042 0 0 1 1.437 2.013c.35.783.525 1.658.525 2.625 0 .967-.175 1.842-.525 2.625a6.042 6.042 0 0 1-1.437 2.012 6.348 6.348 0 0 1-2.15 1.288c-.825.3-1.704.45-2.638.45-.933 0-1.812-.15-2.637-.45a6.348 6.348 0 0 1-2.15-1.288 6.042 6.042 0 0 1-1.438-2.012c-.35-.783-.525-1.658-.525-2.625zm3.75 0c0 .917.263 1.658.788 2.225.525.567 1.262.85 2.212.85.95 0 1.688-.283 2.213-.85.525-.567.787-1.308.787-2.225s-.262-1.658-.787-2.225c-.525-.567-1.263-.85-2.213-.85-.95 0-1.687.283-2.212.85-.525.567-.788 1.308-.788 2.225zM142.286 6.3h6.574c.917 0 1.784.083 2.6.25.817.167 1.53.454 2.138.862a4.36 4.36 0 0 1 1.45 1.65c.358.692.537 1.563.537 2.613 0 1.033-.166 1.9-.5 2.6-.333.7-.791 1.258-1.375 1.675-.583.417-1.275.712-2.075.887-.8.176-1.666.263-2.6.263h-2.85V24h-3.9V6.3zm3.9 7.5h2.6c.35 0 .687-.033 1.012-.1.325-.067.617-.18.875-.337a1.8 1.8 0 0 0 .625-.65c.158-.276.237-.621.237-1.038 0-.45-.104-.812-.312-1.088a2.078 2.078 0 0 0-.8-.637 3.424 3.424 0 0 0-1.088-.287c-.4-.042-.783-.063-1.15-.063h-2v4.2zm12.286-8.7h3.75V24h-3.75V5.1zm14.937 17.375h-.05a3.527 3.527 0 0 1-1.662 1.4 5.715 5.715 0 0 1-2.188.425 5.64 5.64 0 0 1-1.637-.238 4.132 4.132 0 0 1-1.388-.712 3.44 3.44 0 0 1-.95-1.175c-.233-.467-.35-1.008-.35-1.625 0-.7.13-1.292.388-1.775a3.468 3.468 0 0 1 1.05-1.2 5.214 5.214 0 0 1 1.512-.738 11.04 11.04 0 0 1 1.763-.387 16.834 16.834 0 0 1 1.825-.15c.608-.017 1.17-.025 1.687-.025 0-.667-.237-1.196-.712-1.587-.475-.392-1.038-.588-1.688-.588-.616 0-1.179.13-1.687.388a4.61 4.61 0 0 0-1.363 1.062l-2-2.05a6.882 6.882 0 0 1 2.45-1.463 8.756 8.756 0 0 1 2.9-.487c1.1 0 2.005.137 2.713.412.708.276 1.275.68 1.7 1.213.425.533.72 1.187.887 1.962.167.776.25 1.671.25 2.688V24h-3.45v-1.525zm-.925-3.8c-.283 0-.637.012-1.062.037a5.384 5.384 0 0 0-1.225.213 2.726 2.726 0 0 0-1 .525c-.275.233-.413.558-.413.975 0 .45.192.783.575 1 .384.217.784.325 1.2.325.367 0 .721-.05 1.063-.15.342-.1.646-.242.912-.425.267-.183.48-.417.638-.7.158-.283.237-.617.237-1v-.8h-.925zm15.813-2.9a2.101 2.101 0 0 0-.775-.662 2.278 2.278 0 0 0-1.075-.263c-.95 0-1.688.283-2.213.85-.525.567-.787 1.308-.787 2.225s.262 1.658.787 2.225c.525.567 1.263.85 2.213.85.416 0 .775-.092 1.075-.275.3-.183.558-.4.775-.65l2.475 2.6c-.584.6-1.271 1.02-2.063 1.262a7.75 7.75 0 0 1-2.262.363c-.934 0-1.813-.15-2.638-.45a6.348 6.348 0 0 1-2.15-1.288 6.042 6.042 0 0 1-1.437-2.012c-.35-.783-.525-1.658-.525-2.625 0-.967.175-1.842.525-2.625.35-.783.829-1.454 1.437-2.013A6.348 6.348 0 0 1 183.81 12c.825-.3 1.704-.45 2.638-.45.716 0 1.47.12 2.262.362s1.48.663 2.063 1.263l-2.475 2.6zm16.187 6.125a5.984 5.984 0 0 1-2.275 1.775 6.815 6.815 0 0 1-2.85.625c-.934 0-1.813-.15-2.638-.45a6.348 6.348 0 0 1-2.15-1.288 6.042 6.042 0 0 1-1.437-2.012c-.35-.783-.525-1.658-.525-2.625 0-.967.175-1.842.525-2.625.35-.783.829-1.454 1.437-2.013a6.348 6.348 0 0 1 2.15-1.287c.825-.3 1.704-.45 2.638-.45.866 0 1.654.15 2.362.45.708.3 1.308.73 1.8 1.287.492.559.871 1.23 1.138 2.013.266.783.4 1.658.4 2.625V19.1h-8.7c.15.717.475 1.287.975 1.712.5.426 1.116.638 1.85.638.616 0 1.137-.137 1.562-.412.425-.276.796-.63 1.113-1.063l2.625 1.925zm-3.175-5.35a2.17 2.17 0 0 0-.625-1.625c-.434-.45-.992-.675-1.675-.675-.417 0-.784.067-1.1.2a2.757 2.757 0 0 0-.813.513c-.225.208-.4.45-.525.725a2.387 2.387 0 0 0-.212.862h4.95z"/>
    </g>
</svg>
